<?xml version="1.0" standalone="no"?>
<!DOCTYPE svg PUBLIC "-//W3C//DTD SVG 20010904//EN"
 "http://www.w3.org/TR/2001/REC-SVG-20010904/DTD/svg10.dtd">
<svg version="1.0" xmlns="http://www.w3.org/2000/svg"
 width="1280.000000pt" height="1280.000000pt" viewBox="0 0 1280.000000 1280.000000"
 preserveAspectRatio="xMidYMid meet">
<g transform="translate(0.000000,1280.000000) scale(0.100000,-0.100000)"
fill="#4caf50" stroke="none">
<path d="M0 6400 l0 -6400 6400 0 6400 0 0 6400 0 6400 -6400 0 -6400 0 0
-6400z m6585 6055 c90 -24 272 -117 343 -175 139 -114 247 -290 299 -485 24
-90 26 -118 27 -280 0 -135 -4 -202 -17 -269 -46 -227 -94 -313 -191 -341 -99
-29 -193 13 -240 106 -33 68 -33 121 0 246 38 144 45 337 15 453 -29 119 -75
204 -146 275 -142 141 -332 174 -505 85 -61 -31 -161 -130 -195 -192 -42 -78
-39 -142 15 -283 50 -131 57 -210 23 -285 -89 -197 -291 -257 -435 -130 -139
122 -172 341 -92 618 102 355 371 598 737 668 90 17 280 11 362 -11z m2257
-115 c58 -17 130 -71 165 -123 74 -110 80 -215 28 -500 -72 -398 -66 -486 33
-536 62 -31 105 -34 135 -11 14 11 53 73 87 137 81 155 135 230 239 333 181
180 456 327 788 424 246 71 425 90 603 61 215 -34 235 -35 296 -19 31 8 75 28
98 44 166 120 229 147 322 137 64 -7 104 -27 153 -77 88 -91 145 -249 185
-510 75 -489 79 -716 21 -1053 -14 -80 -37 -178 -51 -219 -82 -227 -235 -437
-400 -547 -99 -67 -150 -82 -282 -84 -99 -2 -112 -4 -149 -29 -103 -68 -94
-196 20 -275 97 -66 148 -75 477 -83 309 -9 344 -13 445 -61 155 -72 265 -296
251 -509 -7 -113 -27 -186 -81 -297 -169 -343 -582 -652 -1095 -818 -264 -85
-649 -129 -1140 -128 -894 1 -1499 183 -1605 483 -21 60 -19 99 11 158 31 63
75 101 169 148 100 49 195 67 335 62 97 -4 125 -9 180 -32 36 -15 90 -36 121
-46 301 -99 1267 -5 1668 162 94 39 171 109 171 155 0 68 -76 87 -217 54 -205
-48 -397 -65 -723 -65 -243 0 -322 3 -390 17 -218 42 -307 159 -224 294 19 30
59 70 109 108 182 136 327 257 454 380 299 290 554 617 696 896 32 63 98 184
148 269 111 192 136 243 186 368 60 151 84 254 77 332 -7 74 -43 156 -82 184
-61 43 -155 26 -244 -44 -47 -37 -223 -234 -303 -338 -82 -107 -274 -318 -457
-502 -584 -585 -1050 -876 -1370 -858 -187 11 -310 132 -356 349 -19 91 -14
350 10 474 28 143 17 245 -29 291 -29 29 -63 30 -114 5 -105 -54 -189 -216
-206 -401 -3 -36 -13 -107 -22 -158 -32 -192 -7 -422 76 -687 17 -55 31 -120
31 -146 0 -110 -71 -253 -169 -341 -116 -105 -247 -132 -363 -75 -80 40 -165
135 -222 250 -65 130 -89 280 -90 547 -1 374 76 706 272 1161 70 164 261 538
327 643 196 311 426 524 667 620 114 45 231 54 330 26z m-6877 -90 c110 -5
236 -14 280 -20 604 -81 934 -317 985 -702 7 -50 6 -110 -2 -189 -11 -114 -11
-117 13 -165 26 -53 77 -94 116 -94 35 0 92 29 109 55 8 13 37 79 63 149 56
145 96 217 163 291 82 90 180 119 248 73 58 -40 72 -68 69 -134 -7 -136 -2
-200 17 -240 21 -42 74 -84 108 -84 72 0 151 51 187 121 53 105 -8 219 -171
324 -119 76 -145 171 -56 205 63 23 191 -2 264 -52 163 -112 350 -347 486
-610 280 -540 373 -1194 275 -1930 -38 -288 -67 -406 -131 -530 -92 -178 -250
-272 -383 -228 -88 29 -160 133 -189 273 -31 147 -17 323 44 562 89 348 121
554 121 780 1 225 -43 398 -111 438 -57 34 -143 16 -168 -36 -12 -24 -10 -40
8 -120 59 -244 22 -551 -92 -785 -48 -98 -89 -132 -167 -140 -65 -6 -105 15
-161 85 -67 84 -212 244 -425 467 -353 370 -428 451 -502 543 -182 228 -455
382 -630 357 -173 -25 -301 -260 -263 -483 24 -142 62 -198 321 -471 351 -371
486 -541 579 -725 63 -125 84 -206 78 -300 -8 -128 -83 -224 -231 -297 -294
-145 -646 -142 -1086 8 -122 42 -138 45 -172 35 -77 -23 -113 -110 -71 -173
24 -36 126 -118 212 -169 94 -56 196 -94 320 -119 93 -19 127 -21 290 -17 202
5 285 18 628 93 237 51 329 56 436 24 123 -38 227 -139 277 -268 31 -80 31
-214 0 -294 -71 -182 -263 -321 -521 -377 -98 -21 -294 -30 -443 -20 -853 57
-1691 538 -1996 1147 -102 204 -156 502 -117 650 56 211 284 350 667 406 121
18 365 36 494 36 112 0 170 24 198 82 16 33 17 40 3 72 -21 50 -73 73 -206 91
-385 54 -650 258 -830 638 -126 267 -187 580 -177 906 4 129 10 184 27 246 13
45 23 111 23 151 2 82 -9 104 -84 175 -37 34 -49 52 -49 75 0 45 35 93 83 114
74 33 520 85 842 99 99 4 185 9 190 9 6 1 100 -3 210 -8z m8763 -1372 c7 -7
12 -21 12 -33 0 -58 -138 -282 -298 -485 -375 -473 -981 -1016 -1597 -1429
-232 -156 -365 -235 -614 -365 -1351 -708 -2116 -1509 -2447 -2561 -35 -112
-38 -128 -38 -250 -1 -118 1 -134 23 -175 43 -82 103 -130 183 -145 54 -10
137 17 175 57 56 59 66 91 74 238 16 288 100 621 221 867 59 123 113 198 204
286 115 112 206 145 272 98 17 -12 48 -56 72 -103 23 -46 56 -98 73 -116 59
-61 144 -63 199 -4 14 15 50 79 81 142 30 63 77 142 104 175 123 151 317 246
540 263 307 24 652 -74 835 -237 60 -53 88 -106 88 -164 0 -83 -51 -97 -216
-63 -293 62 -518 36 -756 -86 -286 -146 -419 -322 -665 -877 -202 -457 -276
-585 -427 -737 -99 -99 -183 -149 -301 -179 -76 -19 -245 -19 -350 1 -189 35
-233 39 -293 26 -193 -40 -277 -252 -243 -612 57 -605 139 -861 381 -1185 116
-155 202 -236 300 -283 96 -46 181 -72 325 -102 55 -11 105 -26 112 -33 18
-18 -11 -115 -115 -383 -148 -379 -214 -515 -317 -652 -81 -108 -171 -171
-276 -193 -66 -14 -151 1 -233 43 -80 40 -265 112 -641 248 -170 62 -373 139
-450 172 -623 265 -1135 672 -1570 1249 -176 234 -390 575 -512 816 -50 99
-56 118 -56 172 0 49 5 69 29 108 59 95 189 131 279 78 39 -22 50 -39 127
-197 47 -96 113 -221 148 -278 465 -775 1174 -1317 2245 -1717 259 -97 379
-119 439 -79 25 16 28 23 24 60 -7 63 -46 112 -170 217 -240 204 -363 363
-564 736 -158 291 -202 356 -359 528 -50 55 -160 180 -244 278 -84 98 -204
226 -267 284 -133 126 -159 170 -152 265 10 141 158 231 288 176 83 -35 343
-264 431 -380 93 -121 136 -133 160 -44 16 59 6 149 -62 565 -137 840 -225
1260 -364 1740 -318 1099 -864 2120 -1684 3149 -163 204 -410 497 -537 635
-74 80 -124 162 -124 203 0 28 35 54 72 54 35 0 146 -42 223 -84 86 -47 777
-736 974 -971 803 -956 1405 -2149 1576 -3125 10 -52 24 -105 31 -117 16 -26
46 -30 64 -8 6 8 23 104 36 215 96 807 300 1481 720 2387 144 310 434 882 467
919 94 108 256 94 318 -28 18 -35 21 -54 17 -117 -6 -85 0 -72 -268 -636 -426
-897 -557 -1232 -696 -1785 -64 -254 -74 -319 -50 -339 28 -23 61 11 137 143
277 477 676 864 1289 1249 197 124 415 247 870 492 505 271 720 391 930 518
474 287 832 559 1141 867 180 179 288 303 429 491 75 99 109 137 133 146 42
15 70 16 85 1z m-3874 -203 c105 -16 159 -35 194 -68 94 -87 83 -273 -20 -361
-54 -46 -83 -50 -212 -24 -148 30 -470 32 -646 4 -139 -21 -305 -64 -418 -105
-125 -46 -181 -40 -244 26 -97 102 -94 273 6 360 95 84 420 154 871 187 91 7
373 -5 469 -19z m-5998 -3020 c169 -57 266 -160 294 -313 37 -207 -112 -412
-322 -441 -133 -18 -252 20 -326 105 -162 183 -94 557 118 653 63 29 143 27
236 -4z m11309 -395 c30 0 85 -62 100 -113 57 -191 -49 -426 -214 -473 -101
-29 -144 -49 -164 -76 l-21 -28 22 -62 c67 -191 -22 -343 -208 -355 -135 -10
-263 76 -339 227 -41 83 -53 130 -70 272 -12 102 -27 135 -92 204 -63 68 -77
117 -51 178 30 67 108 117 206 131 34 5 75 -1 171 -25 105 -27 140 -31 213
-28 94 3 110 9 276 102 69 40 120 57 144 50 8 -2 20 -4 27 -4z m-1402 -138
c61 -58 77 -116 101 -362 54 -542 55 -1004 6 -1440 -107 -941 -432 -1692
-1021 -2356 -202 -228 -526 -522 -636 -576 -80 -39 -164 -49 -193 -23 -48 44
-9 105 194 309 606 606 1019 1294 1195 1992 88 349 115 591 115 1029 1 404
-21 657 -90 1074 -15 86 -24 174 -21 198 17 152 246 254 350 155z m-8304 -97
c42 -21 77 -67 96 -126 19 -56 18 -97 -6 -419 -13 -174 -6 -473 13 -595 24
-152 7 -214 -70 -269 -101 -71 -242 -32 -302 84 -22 43 -53 155 -75 270 -46
234 -22 705 45 884 52 139 199 223 299 171z m-742 -236 c47 -29 73 -91 73
-176 0 -61 -5 -80 -33 -134 -35 -68 -47 -79 -205 -180 -529 -338 -658 -1005
-337 -1745 151 -349 351 -624 689 -944 97 -92 136 -165 136 -253 0 -177 -174
-257 -350 -161 -209 114 -523 519 -743 961 -327 652 -411 1267 -241 1755 106
303 309 558 606 757 96 64 220 132 262 142 43 10 105 1 143 -22z m1536 -114
c193 -129 364 -283 472 -424 348 -458 358 -1032 30 -1809 -52 -125 -93 -175
-154 -192 -152 -42 -296 63 -295 215 1 51 10 80 63 200 205 460 246 812 130
1104 -68 171 -224 354 -409 481 -133 91 -185 145 -198 206 -18 83 10 173 71
232 89 85 145 83 290 -13z m6267 -496 c179 -22 284 -63 365 -144 57 -57 105
-142 130 -229 26 -88 18 -215 -18 -288 -35 -72 -98 -129 -173 -158 -52 -20
-73 -22 -174 -19 -269 8 -464 3 -553 -14 -260 -52 -527 -186 -712 -359 -116
-108 -161 -219 -120 -298 19 -37 43 -50 90 -50 45 0 57 6 169 92 157 119 388
221 613 269 144 32 368 32 478 0 212 -60 321 -184 333 -379 14 -253 -156 -672
-432 -1065 -252 -360 -585 -713 -1198 -1270 -324 -295 -412 -385 -425 -435 -5
-20 0 -31 27 -55 28 -25 38 -28 72 -23 80 13 176 73 383 241 123 100 210 150
239 139 9 -4 23 -19 31 -34 23 -45 96 -65 235 -64 558 3 1226 563 1746 1464
42 74 98 171 123 214 52 90 120 163 177 192 53 26 146 25 199 -1 177 -87 305
-393 305 -730 0 -144 -18 -260 -63 -405 -27 -88 -32 -121 -32 -205 0 -85 4
-107 23 -147 28 -57 68 -88 122 -95 56 -8 86 3 134 47 53 49 92 133 114 243
21 109 23 666 4 807 -62 437 -208 846 -448 1255 -88 150 -103 183 -120 265
-45 212 70 446 266 543 60 30 72 32 165 32 131 0 188 -25 286 -125 60 -60 79
-89 138 -212 220 -455 323 -1037 308 -1743 -7 -300 -22 -487 -63 -765 -111
-761 -370 -1457 -642 -1728 -285 -285 -720 -388 -920 -217 -22 20 -53 61 -69
93 -25 51 -28 67 -27 152 0 76 8 122 36 230 81 301 72 530 -28 737 -66 138
-157 205 -257 189 -93 -15 -151 -73 -207 -207 -211 -499 -655 -900 -1265
-1142 -687 -273 -1547 -308 -2443 -101 -188 43 -275 78 -362 143 -83 63 -131
133 -138 201 -13 134 98 209 338 230 120 10 154 19 215 54 102 60 171 174 310
511 211 511 346 728 634 1016 168 168 332 298 518 409 130 78 210 150 249 227
24 49 29 70 29 133 0 145 -84 238 -265 295 -41 13 -115 19 -295 25 -252 9
-308 17 -412 65 -71 32 -146 104 -174 168 -21 44 -24 67 -23 157 0 93 4 116
35 206 92 264 344 605 654 885 600 541 1276 839 1765 778z m-6541 -910 c77
-12 129 -37 164 -79 66 -77 57 -217 -19 -317 -45 -59 -67 -65 -273 -67 -130
-2 -210 -8 -266 -20 -270 -59 -502 -155 -668 -279 -95 -71 -138 -86 -204 -68
-64 17 -118 63 -148 126 -24 47 -27 64 -22 114 9 108 71 191 215 289 118 80
197 122 327 176 112 45 287 96 405 116 148 27 353 30 489 9z m3657 -1074 c66
-19 150 -79 194 -138 106 -140 98 -345 -19 -470 -72 -78 -108 -92 -226 -92
-91 0 -106 3 -166 31 -89 43 -142 93 -181 172 -31 62 -33 73 -33 172 0 95 3
111 28 162 33 67 110 140 170 161 55 20 170 21 233 2z m-5682 -543 c89 -52
118 -180 75 -333 -99 -353 -119 -463 -126 -700 -11 -356 43 -622 188 -914 86
-176 175 -300 309 -435 345 -346 806 -498 1195 -393 84 22 216 85 289 137 120
86 252 248 312 382 55 126 69 301 35 436 -38 147 -90 221 -245 352 -78 66
-111 134 -103 216 15 172 170 253 332 174 68 -33 170 -130 239 -227 136 -191
206 -415 206 -662 0 -485 -264 -926 -674 -1125 -204 -99 -391 -135 -656 -127
-263 9 -461 58 -708 177 -200 96 -352 202 -511 355 -341 329 -549 759 -612
1270 -15 127 -16 449 0 580 36 299 129 681 188 768 27 38 73 72 121 88 37 12
109 3 146 -19z m1743 -244 c22 -15 51 -48 68 -79 27 -48 30 -63 30 -139 0
-100 -21 -154 -97 -257 -67 -91 -119 -188 -173 -323 -148 -369 -149 -683 -3
-907 26 -41 53 -94 58 -119 21 -95 -41 -233 -126 -281 -212 -121 -423 220
-441 712 -12 339 66 701 221 1020 74 151 168 298 217 339 83 71 172 83 246 34z
m1993 -2080 c26 -14 57 -41 75 -66 25 -37 30 -55 33 -118 4 -68 1 -81 -28
-141 -68 -137 -347 -372 -563 -473 -125 -59 -225 -84 -337 -85 -83 0 -100 3
-137 24 -120 69 -140 244 -40 358 50 57 80 67 192 68 94 0 104 2 175 37 137
67 219 139 337 298 83 112 193 148 293 98z"/>
<path d="M11436 12061 c-28 -31 -32 -85 -7 -110 30 -30 82 -31 114 -4 27 25
21 70 -12 104 -34 33 -70 37 -95 10z"/>
<path d="M11352 11828 c-47 -47 48 -218 121 -218 18 0 37 29 37 57 0 37 -52
124 -88 148 -41 28 -53 30 -70 13z"/>
<path d="M8362 11549 c-54 -27 -91 -88 -99 -162 -17 -165 147 -250 240 -125
68 91 62 248 -10 286 -42 23 -87 23 -131 1z"/>
<path d="M11825 9105 c-25 -24 -34 -77 -17 -101 26 -40 93 -44 121 -8 29 37
26 61 -13 100 -40 40 -59 42 -91 9z"/>
<path d="M11380 8907 c-40 -20 -70 -74 -70 -127 0 -64 22 -83 104 -88 55 -4
65 -1 93 22 17 15 34 40 38 56 10 44 -21 100 -70 127 -46 26 -60 28 -95 10z"/>
<path d="M1345 11651 c-89 -55 -121 -152 -74 -227 32 -52 75 -73 173 -83 99
-10 131 -30 155 -98 21 -56 61 -112 92 -129 62 -32 127 -6 160 64 27 55 20
101 -21 136 -42 35 -85 46 -185 49 -108 3 -119 13 -129 118 -16 158 -83 225
-171 170z"/>
<path d="M4251 11024 c-45 -57 -16 -144 47 -144 47 0 72 33 72 94 0 71 -77
103 -119 50z"/>
<path d="M1005 8993 c-11 -3 -33 -17 -48 -31 -26 -25 -28 -32 -24 -81 3 -48 9
-59 44 -92 100 -93 223 -59 223 61 0 56 -27 101 -71 122 -40 18 -96 28 -124
21z"/>
<path d="M6933 6285 c-36 -16 -73 -78 -73 -124 0 -47 -15 -75 -90 -168 -118
-146 -158 -254 -110 -298 27 -25 77 -13 129 31 64 56 75 83 61 161 -19 112 -4
138 113 193 37 17 75 43 84 57 26 39 20 91 -14 123 -36 36 -61 42 -100 25z"/>
<path d="M6381 5564 c-40 -51 -19 -126 38 -139 40 -9 67 8 81 50 13 41 -1 99
-26 109 -36 14 -73 6 -93 -20z"/>
<path d="M7970 4629 c-102 -41 -150 -197 -90 -294 24 -39 90 -70 146 -69 74 2
138 68 150 157 13 94 -22 162 -101 198 -45 21 -68 22 -105 8z"/>
<path d="M11408 2127 c-90 -76 -71 -192 34 -204 61 -7 94 2 124 34 47 51 22
143 -49 176 -47 23 -77 21 -109 -6z"/>
<path d="M11244 1677 c-37 -32 -39 -90 -4 -119 34 -27 87 -21 113 14 17 23 18
31 8 57 -27 63 -76 83 -117 48z"/>
<path d="M7448 1634 c-62 -33 -97 -174 -61 -244 23 -44 74 -70 138 -70 108 0
173 95 134 197 -21 56 -118 134 -166 133 -10 -1 -30 -8 -45 -16z"/>
<path d="M6966 1438 c-55 -55 -62 -170 -13 -216 33 -30 100 -46 142 -32 41 13
81 58 90 99 15 71 -62 164 -148 178 -32 5 -41 1 -71 -29z"/>
</g>
</svg>
